<svg width="25" height="25" viewBox="0 0 46 46" fill="none" xmlns="http://www.w3.org/2000/svg">
<path d="M31.3854 6.22917C33.6073 6.23574 35.7364 7.12131 37.3075 8.69246C38.8787 10.2636 39.7643 12.3927 39.7708 14.6146V31.3854C39.7643 33.6073 38.8787 35.7364 37.3075 37.3075C35.7364 38.8787 33.6073 39.7643 31.3854 39.7708H14.6146C12.3928 39.7638 10.2641 38.878 8.69302 37.307C7.12198 35.7359 6.23624 33.6072 6.22917 31.3854V14.6146C6.23574 12.3927 7.12131 10.2636 8.69246 8.69246C10.2636 7.12131 12.3927 6.23574 14.6146 6.22917H31.3854ZM31.3854 2.875H14.6146C8.15733 2.875 2.875 8.15733 2.875 14.6146V31.3854C2.875 37.8427 8.15733 43.125 14.6146 43.125H31.3854C37.8427 43.125 43.125 37.8427 43.125 31.3854V14.6146C43.125 8.15733 37.8427 2.875 31.3854 2.875Z" fill="url(#paint0_linear_209_2)"/>
<path d="M33.9019 14.6146C33.5657 14.6239 33.2311 14.5657 32.9178 14.4434C32.6044 14.3212 32.3188 14.1374 32.0777 13.9029C31.8367 13.6683 31.645 13.3879 31.5142 13.0781C31.3833 12.7682 31.3159 12.4353 31.3159 12.099C31.3159 11.7627 31.3833 11.4297 31.5142 11.1199C31.645 10.8101 31.8367 10.5296 32.0777 10.2951C32.3188 10.0606 32.6044 9.87677 32.9178 9.75453C33.2311 9.63228 33.5657 9.57407 33.9019 9.58336C34.5571 9.60144 35.1794 9.87441 35.6364 10.3442C36.0934 10.814 36.3491 11.4436 36.3491 12.099C36.3491 12.7544 36.0934 13.384 35.6364 13.8537C35.1794 14.3235 34.5571 14.5965 33.9019 14.6146Z" fill="url(#paint1_linear_209_2)"/>
<path d="M23 16.2917C23.881 16.2917 24.7533 16.4652 25.5672 16.8023C26.3811 17.1394 27.1206 17.6336 27.7435 18.2565C28.3664 18.8794 28.8606 19.6189 29.1977 20.4328C29.5348 21.2467 29.7083 22.119 29.7083 23C29.7083 23.881 29.5348 24.7533 29.1977 25.5672C28.8606 26.3811 28.3664 27.1206 27.7435 27.7435C27.1206 28.3664 26.3811 28.8606 25.5672 29.1977C24.7533 29.5348 23.881 29.7083 23 29.7083C21.2208 29.7083 19.5145 29.0016 18.2565 27.7435C16.9984 26.4855 16.2917 24.7792 16.2917 23C16.2917 21.2208 16.9984 19.5145 18.2565 18.2565C19.5145 16.9984 21.2208 16.2917 23 16.2917ZM23 12.9375C20.3313 12.9375 17.7718 13.9977 15.8847 15.8847C13.9977 17.7718 12.9375 20.3313 12.9375 23C12.9375 25.6687 13.9977 28.2282 15.8847 30.1153C17.7718 32.0023 20.3313 33.0625 23 33.0625C25.6687 33.0625 28.2282 32.0023 30.1153 30.1153C32.0023 28.2282 33.0625 25.6687 33.0625 23C33.0625 20.3313 32.0023 17.7718 30.1153 15.8847C28.2282 13.9977 25.6687 12.9375 23 12.9375Z" fill="url(#paint2_linear_209_2)"/>
<defs>
<linearGradient id="paint0_linear_209_2" x1="3" y1="45.5" x2="41" y2="4.5" gradientUnits="userSpaceOnUse">
<stop stop-color="#FCC676"/>
<stop offset="1" stop-color="#DE4C93"/>
</linearGradient>
<linearGradient id="paint1_linear_209_2" x1="33.8325" y1="9.5824" x2="33.8325" y2="14.6156" gradientUnits="userSpaceOnUse">
<stop stop-color="#FCC676"/>
<stop offset="1" stop-color="#DE4C93"/>
</linearGradient>
<linearGradient id="paint2_linear_209_2" x1="23" y1="12.9375" x2="23" y2="33.0625" gradientUnits="userSpaceOnUse">
<stop stop-color="#FCC676"/>
<stop offset="1" stop-color="#DE4C93"/>
</linearGradient>
</defs>
</svg>

